<svg width="51" height="51" viewBox="0 0 51 51" fill="none" xmlns="http://www.w3.org/2000/svg">
<path d="M20.8636 11.0672L12.9888 19.4612H4.63636V31.5388H12.9888L20.8636 39.9328V11.0672ZM11.3336 37.5777H2.31818C1.70336 37.5777 1.11372 37.2596 0.678979 36.6933C0.244236 36.1271 0 35.3591 0 34.5583V16.4417C0 15.6409 0.244236 14.8729 0.678979 14.3067C1.11372 13.7404 1.70336 13.4223 2.31818 13.4223H11.3336L23.606 0.342202C23.7758 0.160878 23.9817 0.0461076 24.1996 0.0112536C24.4176 -0.0236004 24.6387 0.0228955 24.8371 0.145329C25.0355 0.267762 25.2032 0.461095 25.3206 0.70282C25.4379 0.944544 25.5001 1.22472 25.5 1.51072V49.4893C25.5001 49.7753 25.4379 50.0555 25.3206 50.2972C25.2032 50.5389 25.0355 50.7322 24.8371 50.8547C24.6387 50.9771 24.4176 51.0236 24.1996 50.9887C23.9817 50.9539 23.7758 50.8391 23.606 50.6578L11.3359 37.5777H11.3336ZM42.6684 50.06L39.3859 45.7845C41.5835 43.2376 43.3416 40.113 44.5443 36.6166C45.7471 33.1201 46.3671 29.3313 46.3636 25.5C46.3665 21.4724 45.6806 17.4945 44.3557 13.8552C43.0309 10.216 41.1004 7.00677 38.7043 4.46069L41.9962 0.173115C44.8208 3.28779 47.0898 7.16755 48.6449 11.5418C50.1999 15.9161 51.0037 20.6796 51 25.5C51 35.2316 47.787 43.9849 42.6684 50.06ZM34.4551 39.3622L31.1587 35.0685C32.2841 33.9414 33.1954 32.4922 33.822 30.833C34.4487 29.1738 34.774 27.3491 34.7727 25.5C34.7727 21.1822 33.0341 17.3929 30.4145 15.2581L33.7504 10.9132C35.5063 12.5956 36.9335 14.7927 37.9166 17.3268C38.8996 19.8609 39.4109 22.6608 39.4091 25.5C39.4091 31.0618 37.485 36.0378 34.4551 39.3622Z" fill="#FF8D28"/>
</svg>
