<svg width="51" height="51" viewBox="0 0 51 51" fill="none" xmlns="http://www.w3.org/2000/svg">
<g clip-path="url(#clip0_56_23)">
<path d="M21.1926 38.25H23.3749V27.625H27.6249V38.25H29.8073C30.0878 35.6958 31.3904 33.5878 33.5048 31.2864C33.7449 31.0271 35.2728 29.444 35.4534 29.2188C36.9543 27.3437 37.895 25.0829 38.1673 22.6967C38.4396 20.3104 38.0324 17.8958 36.9925 15.7308C35.9526 13.5659 34.3224 11.7387 32.2895 10.4596C30.2567 9.18059 27.904 8.50172 25.5022 8.5012C23.1005 8.50069 20.7475 9.17856 18.7141 10.4567C16.6807 11.7349 15.0497 13.5614 14.0089 15.7259C12.9681 17.8904 12.5598 20.3049 12.8311 22.6912C13.1024 25.0776 14.0421 27.3388 15.5422 29.2145C15.7249 29.4419 17.2571 31.0271 17.4929 31.2843C19.6094 33.5878 20.9121 35.6958 21.1926 38.25ZM21.2499 42.5V44.625H29.7499V42.5H21.2499ZM12.2272 31.875C10.2259 29.3745 8.97158 26.3595 8.60888 23.1773C8.24618 19.9951 8.7898 16.7752 10.1771 13.8885C11.5644 11.0017 13.739 8.56561 16.4503 6.86075C19.1617 5.15588 22.2994 4.25162 25.5022 4.25214C28.705 4.25265 31.8425 5.15791 34.5533 6.86365C37.2641 8.56938 39.4379 11.0062 40.8243 13.8934C42.2107 16.7806 42.7533 20.0006 42.3895 23.1827C42.0258 26.3648 40.7706 29.3794 38.7684 31.8793C37.4509 33.5198 33.9999 36.125 33.9999 39.3125V44.625C33.9999 45.7522 33.5522 46.8332 32.7551 47.6302C31.9581 48.4272 30.8771 48.875 29.7499 48.875H21.2499C20.1228 48.875 19.0418 48.4272 18.2447 47.6302C17.4477 46.8332 16.9999 45.7522 16.9999 44.625V39.3125C16.9999 36.125 13.5468 33.5198 12.2272 31.875Z" fill="#FF8D28"/>
</g>
<defs>
<clipPath id="clip0_56_23">
<rect width="51" height="51" fill="white"/>
</clipPath>
</defs>
</svg>
