<svg width="51" height="51" viewBox="0 0 51 51" fill="none" xmlns="http://www.w3.org/2000/svg">
<path d="M25.5 44.4125L36.0188 33.8937C38.0989 31.8133 39.5155 29.1629 40.0893 26.2774C40.6631 23.392 40.3685 20.4012 39.2426 17.6833C38.1167 14.9653 36.2101 12.6422 33.764 11.0078C31.3178 9.37339 28.4419 8.50103 25.5 8.50103C22.5581 8.50103 19.6822 9.37339 17.2361 11.0078C14.7899 12.6422 12.8833 14.9653 11.7574 17.6833C10.6315 20.4012 10.3369 23.392 10.9107 26.2774C11.4845 29.1629 12.9011 31.8133 14.9813 33.8937L25.5 44.4125ZM25.5 50.422L11.9765 36.8985C9.30185 34.2238 7.4804 30.816 6.74247 27.1061C6.00455 23.3963 6.3833 19.5509 7.83083 16.0562C9.27837 12.5616 11.7297 9.57472 14.8748 7.47325C18.0198 5.37178 21.7175 4.25012 25.5 4.25012C29.2826 4.25012 32.9802 5.37178 36.1253 7.47325C39.2703 9.57472 41.7216 12.5616 43.1692 16.0562C44.6167 19.5509 44.9955 23.3963 44.2575 27.1061C43.5196 30.816 41.6982 34.2238 39.0235 36.8985L25.5 50.422ZM25.5 27.625C26.6272 27.625 27.7082 27.1772 28.5052 26.3802C29.3022 25.5831 29.75 24.5021 29.75 23.375C29.75 22.2478 29.3022 21.1668 28.5052 20.3698C27.7082 19.5727 26.6272 19.125 25.5 19.125C24.3728 19.125 23.2918 19.5727 22.4948 20.3698C21.6978 21.1668 21.25 22.2478 21.25 23.375C21.25 24.5021 21.6978 25.5831 22.4948 26.3802C23.2918 27.1772 24.3728 27.625 25.5 27.625ZM25.5 31.875C23.2457 31.875 21.0837 30.9794 19.4896 29.3854C17.8955 27.7913 17 25.6293 17 23.375C17 21.1206 17.8955 18.9586 19.4896 17.3645C21.0837 15.7705 23.2457 14.875 25.5 14.875C27.7543 14.875 29.9164 15.7705 31.5104 17.3645C33.1045 18.9586 34 21.1206 34 23.375C34 25.6293 33.1045 27.7913 31.5104 29.3854C29.9164 30.9794 27.7543 31.875 25.5 31.875Z" fill="#FF8D28"/>
</svg>
