<svg width="52" height="51" viewBox="0 0 52 51" fill="none" xmlns="http://www.w3.org/2000/svg">
<g clip-path="url(#clip0_56_29)">
<path d="M25.7971 4.25001C28.9836 4.24681 32.1308 4.94525 35.01 6.29461C37.8893 7.64396 40.4283 9.61033 42.4427 12.0509L28.8369 25.5L42.4427 38.9491C40.4283 41.3897 37.8893 43.3561 35.01 44.7054C32.1308 46.0548 28.9836 46.7532 25.7971 46.75C13.924 46.75 4.29956 37.2364 4.29956 25.5C4.29956 13.7636 13.924 4.25001 25.7971 4.25001ZM25.7971 8.50001C23.084 8.50049 20.4094 9.13548 17.992 10.3531C15.5746 11.5707 13.483 13.3364 11.8879 15.5059C10.2929 17.6754 9.23978 20.1872 8.81461 22.836C8.38944 25.4847 8.60428 28.1954 9.44158 30.7464C10.2789 33.2974 11.7149 35.6164 13.6323 37.5138C15.5496 39.4113 17.894 40.8335 20.4737 41.6641C23.0535 42.4947 25.7954 42.7103 28.4755 42.2931C31.1557 41.8759 33.6979 40.8378 35.8945 39.2636L36.3417 38.93L22.7552 25.5L36.3417 12.0679L35.8945 11.7364C33.1402 9.7572 29.8514 8.63484 26.4485 8.51276L25.7971 8.50001ZM25.7971 10.625C26.6524 10.625 27.4726 10.9608 28.0773 11.5586C28.682 12.1564 29.0218 12.9671 29.0218 13.8125C29.0218 14.6579 28.682 15.4686 28.0773 16.0664C27.4726 16.6642 26.6524 17 25.7971 17C24.9419 17 24.1217 16.6642 23.517 16.0664C22.9122 15.4686 22.5725 14.6579 22.5725 13.8125C22.5725 12.9671 22.9122 12.1564 23.517 11.5586C24.1217 10.9608 24.9419 10.625 25.7971 10.625Z" fill="#FF8D28"/>
</g>
<defs>
<clipPath id="clip0_56_29">
<rect width="51.5942" height="51" fill="white"/>
</clipPath>
</defs>
</svg>
